#!OML:ASF F:\VICON\USERDATA\INSTALL\rory3\rory3.ASF
:FULLY-SPECIFIED
:DEGREES
127
root 1.64717 18.2604 43.3064 -6.24234 3.17834 1.62754
lowerback 23.6424 -2.9867 -2.51992
upperback 1.70334 -3.9451 5.35614
thorax -10.7502 -1.57852 8.78533
lowerneck 4.29129 -14.3012 -11.7209
upperneck 31.3187 -20.4752 1.68439
head 10.9271 -10.5974 0.686799
rclavicle 1.98785e-015 -3.18055e-014
rhumerus -44.9646 -56.2133 -5.56529
rradius 74.5635
rwrist -28.7632
rhand -3.28994 8.6735
rfingers 7.12502
rthumb 22.4357 -20.0434
lclavicle 1.98785e-015 -3.18055e-014
lhumerus -51.3228 11.9804 71.9865
lradius 50.9749
lwrist 10.0313
lhand -8.26013 50.6965
lfingers 7.12502
lthumb 17.6585 79.9147
rfemur -14.8487 0.979947 18.2593
rtibia 36.2854
rfoot -12.5688 -16.4724
rtoes 16.0325
lfemur -15.0256 -4.63973 -19.0931
ltibia 35.4534
lfoot -6.00389 0.869186
ltoes -26.4028
128
root 1.63171 18.248 43.2019 -5.97154 2.91998 1.77269
lowerback 23.9402 -3.02397 -2.38349
upperback 1.84844 -3.94867 5.43457
thorax -10.7487 -1.58677 8.81507
lowerneck 4.02175 -14.2985 -11.6045
upperneck 30.9233 -20.4618 1.87092
head 10.8246 -10.5538 0.730045
rclavicle -2.74323e-014 1.11319e-014
rhumerus -44.0064 -54.3436 -7.14983
rradius 76.8781
rwrist -27.4206
rhand -2.83569 8.78872
rfingers 7.12502
rthumb 22.8717 -19.875
lclavicle -2.74323e-014 1.11319e-014
lhumerus -51.2664 12.0931 72.0748
lradius 51.0738
lwrist 10.0763
lhand -8.35037 50.8676
lfingers 7.12502
lthumb 17.5717 80.0936
rfemur -15.805 1.26085 18.1941
rtibia 36.6344
rfoot -12.4158 -16.5317
rtoes 17.3005
lfemur -15.5452 -4.47987 -19.0409
ltibia 35.2452
lfoot -5.39063 0.684165
ltoes -25.6089
129
root 1.61075 18.2491 43.1494 -5.93172 2.4001 2.22079
lowerback 23.6395 -2.89902 -2.64053
upperback 2.29757 -3.87071 5.38676
thorax -10.0741 -1.58724 8.81819
lowerneck 3.29827 -14.2578 -11.3766
upperneck 30.3777 -20.4515 2.44264
head 10.7757 -10.4541 0.852311
rclavicle -1.94809e-014 3.33958e-014
rhumerus -43.7415 -53.334 -7.91233
rradius 78.876
rwrist -24.9612
rhand -1.23745 9.53143
rfingers 7.12502
rthumb 24.4046 -18.9343
lclavicle -1.94809e-014 3.33958e-014
lhumerus -50.8331 11.9354 72.2701
lradius 50.7991
lwrist 10.1651
lhand -8.51694 50.8246
lfingers 7.12502
lthumb 17.4114 80.0648
rfemur -16.1792 1.68202 17.8378
rtibia 36.7852
rfoot -12.3617 -16.3671
rtoes 18.0438
lfemur -15.4899 -4.09656 -19.3483
ltibia 35.1006
lfoot -4.60723 0.891551
ltoes -21.9233
130
root 1.6071 18.2543 43.0887 -5.82541 2.19414 2.37309
lowerback 23.461 -3.07055 -2.39918
upperback 2.63659 -4.03816 5.41825
thorax -9.58262 -1.70969 8.71691
lowerneck 3.28518 -14.2981 -11.3075
upperneck 30.1975 -20.4698 2.37972
head 10.6934 -10.4589 0.827378
rclavicle 1.47101e-014 -9.54166e-015
rhumerus -43.0145 -52.7457 -8.83544
rradius 80.4126
rwrist -21.9694
rhand -0.176797 10.6378
rfingers 7.12502
rthumb 25.421 -17.6872
lclavicle 1.47101e-014 -9.54166e-015
lhumerus -50.5699 11.9379 72.4322
lradius 50.6386
lwrist 10.2916
lhand -8.64721 50.9327
lfingers 7.12502
lthumb 17.286 80.184
rfemur -16.5025 1.39971 17.6509
rtibia 36.7958
rfoot -12.1983 -15.824
rtoes 19.1031
lfemur -15.6328 -4.09234 -19.4132
ltibia 35.0109
lfoot -4.55274 0.688425
ltoes -23.1262
131
root 1.59378 18.2626 43.0393 -5.80156 1.65385 2.33716
lowerback 22.9 -3.06819 -2.02962
upperback 3.23154 -3.9576 5.47685
thorax -8.65162 -1.74349 8.44187
lowerneck 2.89853 -14.3691 -11.1195
upperneck 29.6735 -20.5598 2.65189
head 10.5751 -10.4453 0.87004
rclavicle -5.80451e-014 4.92986e-014
rhumerus -42.5417 -52.0126 -9.72987
rradius 82.1881
rwrist -19.2988
rhand -0.824378 11.6082
rfingers 7.12502
rthumb 24.8005 -16.8036
lclavicle -5.80451e-014 4.92986e-014
lhumerus -49.9822 11.9964 72.5701
lradius 50.4865
lwrist 10.1205
lhand -8.41021 51.2877
lfingers 7.12502
lthumb 17.5141 80.5188
rfemur -16.7833 1.74512 17.7961
rtibia 36.7415
rfoot -11.8415 -15.769
rtoes 18.8301
lfemur -15.6887 -3.92328 -19.1704
ltibia 34.8917
lfoot -4.79723 0.640477
ltoes -21.644
132
root 1.58282 18.2628 42.976 -5.76747 1.05535 2.47339
lowerback 23.3799 -2.99276 -1.80974
upperback 3.06809 -3.787 5.53477
thorax -9.12604 -1.64165 8.38982
lowerneck 3.06444 -14.303 -11.1672
upperneck 29.8268 -20.4614 2.51739
head 10.5864 -10.4201 0.853184
rclavicle 6.0033e-014 -8.42847e-014
rhumerus -42.4307 -49.7866 -10.2778
rradius 84.3031
rwrist -17.384
rhand 12.695 15.9959
rfingers 7.12502
rthumb 37.6778 -9.89027
lclavicle 6.0033e-014 -8.42847e-014
lhumerus -50.5903 11.7535 72.6697
lradius 50.4496
lwrist 10.1226
lhand -8.15816 51.5228
lfingers 7.12502
lthumb 17.7567 80.732
rfemur -17.1946 2.15554 17.766
rtibia 36.7389
rfoot -11.1202 -15.9919
rtoes 18.4189
lfemur -15.8505 -3.78209 -19.1031
ltibia 34.8648
lfoot -5.52893 0.584026
ltoes -21.274
133
root 1.58222 18.2509 42.8757 -5.34548 0.657345 2.75488
lowerback 23.8976 -3.00174 -1.61961
upperback 2.80766 -3.73319 5.53078
thorax -9.71539 -1.58868 8.3285
lowerneck 3.13501 -14.216 -11.1472
upperneck 29.5085 -20.4136 2.85264
head 10.4833 -10.3711 0.986556
rclavicle 5.08889e-014 -1.59028e-014
rhumerus -41.8798 -48.1398 -11.3363
rradius 86.2622
rwrist -15.2229
rhand -5.10149 12.2898
rfingers 7.12502
rthumb 20.6959 -16.6267
lclavicle 5.08889e-014 -1.59028e-014
lhumerus -50.9085 11.5797 72.7481
lradius 50.2579
lwrist 10.2364
lhand -8.18804 51.5736
lfingers 7.12502
lthumb 17.7279 80.7855
rfemur -18.1681 2.2768 17.4818
rtibia 36.7885
rfoot -10.1121 -16.6039
rtoes 17.6924
lfemur -16.5889 -3.82858 -19.2305
ltibia 34.8286
lfoot -6.1396 0.53086
ltoes -22.2873
134
root 1.59224 18.2265 42.7597 -4.98339 0.273798 2.9575
lowerback 24.582 -3.08802 -1.28908
upperback 2.66971 -3.74256 5.50273
thorax -10.2584 -1.57686 8.18312
lowerneck 2.88119 -14.1767 -10.6573
upperneck 29.6682 -20.2387 2.35881
head 10.4564 -10.2794 0.758429
rclavicle -3.22031e-014 -6.36111e-015
rhumerus -41.2035 -47.2446 -12.4633
rradius 87.8402
rwrist -11.8961
rhand -3.88382 12.0072
rfingers 7.12502
rthumb 21.8655 -16.7773
lclavicle -3.22031e-014 -6.36111e-015
lhumerus -50.9337 11.6407 72.7001
lradius 49.9548
lwrist 9.97823
lhand -7.88481 51.4698
lfingers 7.12502
lthumb 18.0197 80.655
rfemur -19.2265 2.22203 17.223
rtibia 37.0022
rfoot -9.47006 -16.688
rtoes 18.0565
lfemur -17.1733 -3.8303 -19.3543
ltibia 34.7389
lfoot -6.52565 0.70894
ltoes -22.0187
135
root 1.57872 18.2214 42.7114 -5.10557 -0.522497 3.11016
lowerback 24.7425 -2.97932 -1.35217
upperback 2.89278 -3.61352 5.59121
thorax -10.0982 -1.5238 8.27895
lowerneck 2.87695 -14.1357 -10.428
upperneck 29.675 -20.0723 1.92171
head 10.3681 -10.2198 0.607473
rclavicle -5.20816e-014 5.56597e-014
rhumerus -40.4231 -46.3421 -13.4785
rradius 89.2014
rwrist -8.08676
rhand -2.47483 12.7634
rfingers 7.12502
rthumb 23.2179 -15.8571
lclavicle -5.20816e-014 5.56597e-014
lhumerus -51.0906 11.7842 72.7234
lradius 49.9123
lwrist 9.47714
lhand -7.27286 51.7557
lfingers 7.12502
lthumb 18.6084 80.8857
rfemur -19.5673 2.74931 17.1911
rtibia 37.2425
rfoot -9.46362 -16.196
rtoes 17.9401
lfemur -16.831 -3.47029 -19.3697
ltibia 34.5885
lfoot -7.30563 0.924272
ltoes -21.9314
136
root 1.59705 18.2131 42.6312 -4.87892 -0.77981 3.75834
lowerback 24.9883 -3.08671 -1.42702
upperback 2.82921 -3.77208 5.54373
thorax -10.2756 -1.58626 8.34684
lowerneck 2.7642 -13.787 -10.7169
upperneck 28.324 -19.7363 3.02428
head 10.0075 -10.0063 1.08676
rclavicle 3.81667e-014 3.02153e-014
rhumerus -39.4463 -44.5794 -14.7326
rradius 90.9884
rwrist -5.54987
rhand -2.13608 12.5363
rfingers 7.12502
rthumb 23.5429 -16.0428
lclavicle 3.81667e-014 3.02153e-014
lhumerus -51.4226 12.0089 72.8706
lradius 49.9148
lwrist 8.99101
lhand -6.45188 51.9932
lfingers 7.12502
lthumb 19.3979 81.0457
rfemur -20.3228 2.12729 16.3816
rtibia 37.4463
rfoot -9.14571 -15.085
rtoes 17.1082
lfemur -17.0476 -3.65959 -20.1291
ltibia 34.4685
lfoot -8.12877 1.21043
ltoes -21.7126
137
root 1.61952 18.2011 42.5496 -4.73459 -1.01548 4.29479
lowerback 25.197 -3.21144 -1.24751
upperback 2.87509 -3.89507 5.42631
thorax -10.3369 -1.65129 8.16159
lowerneck 3.01892 -13.9317 -10.7086
upperneck 29.1925 -19.8306 2.25088
head 10.2115 -10.1116 0.811412
rclavicle -3.69739e-014 6.52014e-014
rhumerus -38.6587 -43.0967 -16.1027
rradius 92.7295
rwrist -3.22058
rhand -2.18602 12.2784
rfingers 7.12502
rthumb 23.495 -16.3068
lclavicle -3.69739e-014 6.52014e-014
lhumerus -51.543 11.9875 73.1008
lradius 49.8848
lwrist 8.74952
lhand -5.93412 52.2923
lfingers 7.12502
lthumb 19.8957 81.2938
rfemur -20.9314 1.43163 15.7087
rtibia 37.5967
rfoot -8.76889 -14.2275
rtoes 15.8011
lfemur -17.1183 -3.70581 -20.7974
ltibia 34.3019
lfoot -9.25311 1.31901
ltoes -22.151
